<?xml version="1.0" encoding="iso-8859-1"?>
<!-- Generator: Adobe Illustrator 19.0.0, SVG Export Plug-In . SVG Version: 6.00 Build 0)  -->
<svg version="1.1" id="Layer_1" xmlns="http://www.w3.org/2000/svg" xmlns:xlink="http://www.w3.org/1999/xlink" x="0px" y="0px"
	 viewBox="0 0 512 512" style="enable-background:new 0 0 512 512;" xml:space="preserve">
<path style="fill:#E5E5E5;" d="M256,0C114.616,0,0,114.616,0,256s114.616,256,256,256s256-114.616,256-256S397.384,0,256,0z"/>
<polygon points="199.32,187.152 172.76,108.56 104,108.56 104,87.56 187.832,87.56 219.216,180.424 "/>
<polygon points="148.376,169.512 440,169.512 384.416,325.472 196.944,325.472 "/>
<circle cx="351.688" cy="384" r="40.4"/>
<circle cx="229.72" cy="384" r="40.4"/>
<polygon style="fill:#F00000;" points="317.576,122.104 400.784,206.432 317.576,290.752 237.736,290.752 321.08,206.432 
	237.736,122.104 "/>
<g>
</g>
<g>
</g>
<g>
</g>
<g>
</g>
<g>
</g>
<g>
</g>
<g>
</g>
<g>
</g>
<g>
</g>
<g>
</g>
<g>
</g>
<g>
</g>
<g>
</g>
<g>
</g>
<g>
</g>
</svg>
